<svg width="20" height="20" viewBox="0 0 20 20" fill="none" xmlns="http://www.w3.org/2000/svg">
<path d="M10.0001 19.2308C4.92313 19.2308 0.769287 15.077 0.769287 10.0001C0.769287 4.92313 4.92313 0.769287 10.0001 0.769287C15.077 0.769287 19.2308 4.92313 19.2308 10.0001C19.2308 15.077 15.077 19.2308 10.0001 19.2308ZM10.0001 1.92313C5.55775 1.92313 1.92313 5.55775 1.92313 10.0001C1.92313 14.4424 5.55775 18.077 10.0001 18.077C14.4424 18.077 18.077 14.4424 18.077 10.0001C18.077 5.55775 14.4424 1.92313 10.0001 1.92313Z" fill="#DB7C6A" stroke="#DB7C6A" stroke-width="0.5"/>
<path d="M10.6924 14.3269V10.375H12.0482L12.2501 8.84617H10.6924V7.8654C10.6924 7.43271 10.8078 7.1154 11.4712 7.1154H12.3078V5.73079C12.1635 5.70194 11.6732 5.6731 11.0962 5.6731C9.88469 5.6731 9.077 6.39425 9.077 7.69233V8.84617H7.69238V10.375H9.04815V14.3269H10.6924Z" fill="#DB7C6A"/>
</svg>
