<svg width="26" height="26" viewBox="0 0 26 26" fill="none" xmlns="http://www.w3.org/2000/svg">
<path d="M13 25C6.4 25 1 19.6 1 13C1 6.4 6.4 1 13 1C19.6 1 25 6.4 25 13C25 19.6 19.6 25 13 25ZM13 2.5C7.225 2.5 2.5 7.225 2.5 13C2.5 18.775 7.225 23.5 13 23.5C18.775 23.5 23.5 18.775 23.5 13C23.5 7.225 18.775 2.5 13 2.5Z" fill="#DA6C51"/>
<path d="M12.5331 8.24489L12.3681 7.95997C12.2569 7.76749 12.2013 7.67128 12.1443 7.59632C11.7242 7.04361 10.9761 6.84889 10.3283 7.12336C10.2404 7.16058 10.1428 7.2164 9.94752 7.32902C8.88734 8.00243 8.96714 10.3007 9.03534 10.6413C9.03534 10.6413 9.04915 11.7673 10.5868 14.427C12.1245 17.0868 13.2588 17.9471 13.2588 17.9471C13.9041 18.4779 15.4731 19.3944 16.5872 18.8142C16.7824 18.7016 16.88 18.6452 16.9562 18.5879C17.5182 18.1648 17.7232 17.4201 17.4539 16.7805C17.4174 16.6937 17.3619 16.5974 17.2506 16.4049L17.0859 16.12C16.9067 15.81 16.7881 15.6051 16.679 15.4574C16.586 15.3315 16.4515 15.2446 16.3091 15.1751C15.694 14.8745 14.4794 15.159 13.84 14.9083C13.7738 14.8824 13.7092 14.852 13.6463 14.8176C13.582 14.7825 13.5204 14.7436 13.465 14.6959C13.2924 14.5475 12.885 14.1581 12.5095 13.5086C12.0234 12.6678 11.9844 12.0743 11.9835 12.0586V12.0576C11.9734 11.8733 11.991 11.6906 12.0336 11.5142C12.1907 10.8628 12.9924 9.96283 12.9826 9.29908C12.9811 9.20084 12.972 9.10241 12.9379 9.01106C12.8693 8.82666 12.7427 8.60747 12.5331 8.24489Z" fill="#DA6C51"/>
</svg>
