<svg width="20" height="20" viewBox="0 0 20 20" fill="none" xmlns="http://www.w3.org/2000/svg">
<path d="M12.5256 9.99999C12.5256 11.3949 11.3949 12.5256 9.99999 12.5256V14.5256C12.4994 14.5256 14.5256 12.4994 14.5256 9.99999H12.5256ZM9.99999 12.5256C8.60512 12.5256 7.47435 11.3949 7.47435 9.99999H5.47435C5.47435 12.4994 7.50055 14.5256 9.99999 14.5256V12.5256ZM7.47435 9.99999C7.47435 8.60512 8.60512 7.47435 9.99999 7.47435V5.47435C7.50055 5.47435 5.47435 7.50055 5.47435 9.99999H7.47435ZM9.99999 7.47435C11.3949 7.47435 12.5256 8.60512 12.5256 9.99999H14.5256C14.5256 7.50055 12.4994 5.47435 9.99999 5.47435V7.47435ZM9.99999 17.4615C8.67211 17.4615 7.72629 17.461 6.98154 17.4102C6.24578 17.36 5.77961 17.2641 5.40343 17.1083L4.63807 18.956C5.29855 19.2296 6.00781 19.3484 6.8454 19.4055C7.67401 19.4621 8.69948 19.4615 9.99999 19.4615V17.4615ZM0.538452 9.99999C0.538452 11.3005 0.537911 12.326 0.594446 13.1546C0.651595 13.9922 0.770388 14.7014 1.04397 15.3619L2.89173 14.5965C2.73591 14.2204 2.64001 13.7542 2.58981 13.0184C2.53899 12.2737 2.53845 11.3279 2.53845 9.99999H0.538452ZM5.40343 17.1083C4.26625 16.6372 3.36277 15.7337 2.89173 14.5965L1.04397 15.3619C1.71799 16.9892 3.01083 18.282 4.63807 18.956L5.40343 17.1083ZM17.4615 9.99999C17.4615 11.3279 17.461 12.2737 17.4102 13.0184C17.36 13.7542 17.2641 14.2204 17.1083 14.5965L18.956 15.3619C19.2296 14.7014 19.3484 13.9922 19.4055 13.1546C19.4621 12.326 19.4615 11.3005 19.4615 9.99999H17.4615ZM9.99999 19.4615C11.3005 19.4615 12.326 19.4621 13.1546 19.4055C13.9922 19.3484 14.7014 19.2296 15.3619 18.956L14.5965 17.1083C14.2204 17.2641 13.7542 17.36 13.0184 17.4102C12.2737 17.461 11.3279 17.4615 9.99999 17.4615V19.4615ZM17.1083 14.5965C16.6372 15.7337 15.7337 16.6372 14.5965 17.1083L15.3619 18.956C16.9892 18.282 18.282 16.9892 18.956 15.3619L17.1083 14.5965ZM9.99999 2.53845C11.3279 2.53845 12.2737 2.53899 13.0184 2.58981C13.7542 2.64001 14.2204 2.73591 14.5965 2.89173L15.3619 1.04397C14.7014 0.770388 13.9922 0.651595 13.1546 0.594446C12.326 0.537911 11.3005 0.538452 9.99999 0.538452V2.53845ZM19.4615 9.99999C19.4615 8.69948 19.4621 7.67401 19.4055 6.8454C19.3484 6.00781 19.2296 5.29855 18.956 4.63807L17.1083 5.40343C17.2641 5.77961 17.36 6.24578 17.4102 6.98154C17.461 7.72629 17.4615 8.67211 17.4615 9.99999H19.4615ZM14.5965 2.89173C15.7337 3.36277 16.6372 4.26625 17.1083 5.40343L18.956 4.63807C18.282 3.01083 16.9892 1.71799 15.3619 1.04397L14.5965 2.89173ZM9.99999 0.538452C8.69948 0.538452 7.67401 0.537911 6.8454 0.594446C6.00781 0.651595 5.29855 0.770388 4.63807 1.04397L5.40343 2.89173C5.77961 2.73591 6.24578 2.64001 6.98154 2.58981C7.72629 2.53899 8.67211 2.53845 9.99999 2.53845V0.538452ZM2.53845 9.99999C2.53845 8.67211 2.53899 7.72629 2.58981 6.98154C2.64001 6.24578 2.73591 5.77961 2.89173 5.40343L1.04397 4.63807C0.770388 5.29855 0.651595 6.00781 0.594446 6.8454C0.537911 7.67401 0.538452 8.69948 0.538452 9.99999H2.53845ZM4.63807 1.04397C3.01083 1.71799 1.71799 3.01083 1.04397 4.63807L2.89173 5.40343C3.36277 4.26625 4.26625 3.36277 5.40343 2.89173L4.63807 1.04397Z" fill="#DB7C6A"/>
</svg>
